<svg version="1.1" viewBox="0.0 0.0 320.0 105.0" fill="none" stroke="none" stroke-linecap="square" stroke-miterlimit="10" xmlns:xlink="http://www.w3.org/1999/xlink" xmlns="http://www.w3.org/2000/svg"><clipPath id="p.0"><path d="m0 0l320.0 0l0 105.0l-320.0 0l0 -105.0z" clip-rule="nonzero"/></clipPath><g clip-path="url(#p.0)"><path fill="#000000" fill-opacity="0.0" d="m0 0l320.0 0l0 105.0l-320.0 0z" fill-rule="evenodd"/><g filter="url(#shadowFilter-p.1)"><use xlink:href="#p.1" transform="matrix(1.0 0.0 0.0 1.0 0.0 2.0)"/></g><defs><filter id="shadowFilter-p.1" filterUnits="userSpaceOnUse"><feGaussianBlur in="SourceAlpha" stdDeviation="2.0" result="blur"/><feComponentTransfer in="blur" color-interpolation-filters="sRGB"><feFuncR type="linear" slope="0" intercept="0.0"/><feFuncG type="linear" slope="0" intercept="0.0"/><feFuncB type="linear" slope="0" intercept="0.0"/><feFuncA type="linear" slope="0.5" intercept="0"/></feComponentTransfer></filter></defs><g id="p.1"><path fill="#ffffff" d="m0 17.034462l0 0c0 -9.407873 7.6265883 -17.034462 17.034462 -17.034462l283.3799 0c4.5178223 0 8.850586 1.794697 12.045166 4.9892783c3.19458 3.1945815 4.9892883 7.5273633 4.9892883 12.045183l0 68.1358c0 9.407867 -7.626587 17.034462 -17.034454 17.034462l-283.3799 0c-9.407873 0 -17.034462 -7.6265945 -17.034462 -17.034462z" fill-rule="evenodd"/></g><path fill="#ff0000" d="m15.496247 31.929184l0 0c0 -11.7240925 9.4549 -21.228348 21.11811 -21.228348l0 0c5.600872 0 10.972347 2.2365513 14.932758 6.217639c3.960415 3.9810867 6.1853523 9.3806 6.1853523 15.010708l0 0c0 11.724091 -9.454899 21.228344 -21.11811 21.228344l0 0c-11.66321 0 -21.11811 -9.504253 -21.11811 -21.228344z" fill-rule="evenodd"/><path fill="#000000" fill-opacity="0.0" d="m13.637144 22.050714l25.952757 -25.732283l20.0 19.84252l-25.952755 25.732283z" fill-rule="evenodd"/><path fill="#f3f3f3" d="m44.534855 19.382723q0.09983063 0.09904671 0.1552887 0.19808578q0.06655121 0.08803749 0.08872604 0.17606735q0.02217865 0.06602287 -1.9073486E-5 0.13203812q-0.011100769 0.055015564 -0.055480957 0.099020004l-1.8196754 1.8042164l2.018837 2.0029392q0.044368744 0.0440197 0.055454254 0.09903717q-3.8146973E-6 0.044013977 -0.022201538 0.11002922q-0.022197723 0.06601524 -0.077682495 0.16503525q-0.06657791 0.0880146 -0.18862915 0.20902824q-0.110954285 0.11001396 -0.19971466 0.17601776q-0.099853516 0.054998398 -0.17751694 0.08799553q-0.06656647 0.021993637 -0.11094284 0.021986008q-0.055469513 -0.011013031 -0.09984207 -0.05503273l-2.0188332 -2.0029392l-1.8196754 1.8042164q-0.044380188 0.04400444 -0.110946655 0.065999985q-0.055473328 0.0109939575 -0.13312912 -2.2888184E-5q-0.07765579 -0.033023834 -0.17749405 -0.088056564q-0.0887413 -0.066036224 -0.18857574 -0.16508293q-0.09983063 -0.0990448 -0.16638184 -0.18708229q-0.05545807 -0.09903908 -0.07763672 -0.16506195q-0.022174835 -0.08802986 -0.011074066 -0.14304543q0.022197723 -0.06601524 0.06657791 -0.110019684l1.8196754 -1.8042164l-2.018837 -2.0029392q-0.044368744 -0.0440197 -0.055454254 -0.09903717q-0.01108551 -0.05501938 0.011112213 -0.12103462q0.022197723 -0.08802223 0.088775635 -0.17603683q0.0665741 -0.0880146 0.1775322 -0.19802666q0.12205124 -0.12101555 0.21081161 -0.18701935q0.088760376 -0.0660038 0.1664238 -0.07699394q0.06656647 -0.021993637 0.122032166 -0.010980606q0.055469513 0.011011124 0.09984207 0.05503273l2.0188332 2.0029392l1.8307686 -1.815218q0.044384003 -0.04400444 0.099853516 -0.054998398q0.055473328 -0.0109939575 0.14422226 0.01102829q0.07765579 0.011016846 0.16640091 0.07705116q0.0887413 0.066036224 0.18857574 0.16508102z" fill-rule="nonzero"/><path fill="#0b5394" d="m42.52911 83.77439l32.881893 0l0 6.110237l-32.881893 0z" fill-rule="evenodd"/><path stroke="#999999" stroke-width="1.0" stroke-linejoin="round" stroke-linecap="butt" d="m42.52911 83.77439l32.881893 0l0 6.110237l-32.881893 0z" fill-rule="evenodd"/><defs><linearGradient id="p.2" gradientUnits="userSpaceOnUse" gradientTransform="matrix(0.0 9.626090710975896 -9.626090710975896 0.0 0.0 0.0)" spreadMethod="pad" x1="2.9761360312673935" y1="-10.938959626762477" x2="2.97610114966612" y2="-1.3128689158497788"><stop offset="0.0" stop-color="#3177ee"/><stop offset="1.0" stop-color="#113d8a"/></linearGradient></defs><path fill="url(#p.2)" d="m105.29921 28.648554l0 28.803148l0 0c0 15.907543 -20.742958 28.80315 -46.330708 28.80315c-25.587742 0 -46.330708 -12.895607 -46.330708 -28.80315l0 -28.803148z" fill-rule="evenodd"/><path stroke="#999999" stroke-width="1.0" stroke-linejoin="round" stroke-linecap="butt" d="m105.29921 28.648554l0 28.803148l0 0c0 15.907543 -20.742958 28.80315 -46.330708 28.80315c-25.587742 0 -46.330708 -12.895607 -46.330708 -28.80315l0 -28.803148z" fill-rule="evenodd"/><path fill="#000000" fill-opacity="0.0" d="m117.14698 2.440945l189.85828 0l0 81.32283l-189.85828 0z" fill-rule="evenodd"/><path fill="#000000" d="m142.14699 32.177822l-15.750008 0l0 -4.09375l36.234383 0l0 4.09375l-15.75 0l0 40.70313l-4.734375 0l0 -40.70313zm40.82968 41.01563q-4.859375 0 -8.765625 -2.203125q-3.90625 -2.203125 -6.15625 -6.109375q-2.234375 -3.9062538 -2.234375 -8.828129q0 -4.9375 2.234375 -8.828125q2.25 -3.90625 6.15625 -6.078125q3.90625 -2.1875 8.765625 -2.1875q4.859375 0 8.765625 2.1875q3.90625 2.171875 6.109375 6.078125q2.21875 3.890625 2.21875 8.828125q0 4.921875 -2.21875 8.828129q-2.203125 3.90625 -6.109375 6.109375q-3.90625 2.203125 -8.765625 2.203125zm0 -4.03125q3.59375 0 6.4375 -1.625q2.84375 -1.625 4.4375 -4.625004q1.609375 -3.015625 1.609375 -6.859375q0 -3.84375 -1.609375 -6.84375q-1.59375 -3.015625 -4.4375 -4.640625q-2.84375 -1.640625 -6.4375 -1.640625q-3.578125 0 -6.4375 1.640625q-2.84375 1.625 -4.484375 4.640625q-1.625 3.0 -1.625 6.84375q0 3.84375 1.625 6.859375q1.640625 3.0000038 4.484375 4.625004q2.859375 1.625 6.4375 1.625zm40.12793 4.03125q-4.859375 0 -8.765625 -2.203125q-3.90625 -2.203125 -6.15625 -6.109375q-2.234375 -3.9062538 -2.234375 -8.828129q0 -4.9375 2.234375 -8.828125q2.25 -3.90625 6.15625 -6.078125q3.90625 -2.1875 8.765625 -2.1875q4.859375 0 8.765625 2.1875q3.90625 2.171875 6.109375 6.078125q2.21875 3.890625 2.21875 8.828125q0 4.921875 -2.21875 8.828129q-2.203125 3.90625 -6.109375 6.109375q-3.90625 2.203125 -8.765625 2.203125zm0 -4.03125q3.59375 0 6.4375 -1.625q2.84375 -1.625 4.4375 -4.625004q1.609375 -3.015625 1.609375 -6.859375q0 -3.84375 -1.609375 -6.84375q-1.59375 -3.015625 -4.4375 -4.640625q-2.84375 -1.640625 -6.4375 -1.640625q-3.578125 0 -6.4375 1.640625q-2.84375 1.625 -4.484375 4.640625q-1.625 3.0 -1.625 6.84375q0 3.84375 1.625 6.859375q1.640625 3.0000038 4.484375 4.625004q2.859375 1.625 6.4375 1.625zm44.096664 1.671875q-1.28125 1.15625 -3.171875 1.765625q-1.875 0.59375 -3.9375 0.59375q-4.7343597 0 -7.2968597 -2.546875q-2.546875 -2.5625 -2.546875 -7.234379l0 -20.359375l-6.015625 0l0 -3.828125l6.015625 0l0 -7.375l4.53125 0l0 7.375l10.249985 0l0 3.828125l-10.249985 0l0 20.09375q0 3.0156288 1.4999847 4.593754q1.515625 1.5625 4.328125 1.5625q1.40625 0 2.71875 -0.453125q1.3125 -0.453125 2.28125 -1.28125l1.59375 3.265625zm7.5464783 -42.750004l5.390625 0l-0.96875 31.359375l-3.515625 0l-0.90625 -31.359375zm2.6875 45.10938q-1.40625 0 -2.40625 -0.984375q-0.984375 -0.984375 -0.984375 -2.34375q0 -1.40625 0.953125 -2.328125q0.96875 -0.921875 2.4375 -0.921875q1.421875 0 2.375 0.921875q0.953125 0.921875 0.953125 2.328125q0 1.359375 -0.953125 2.34375q-0.953125 0.984375 -2.375 0.984375z" fill-rule="nonzero"/></g></svg>